<?xml version="1.0" standalone="no"?>
<!DOCTYPE svg PUBLIC "-//W3C//DTD SVG 20010904//EN"
 "http://www.w3.org/TR/2001/REC-SVG-20010904/DTD/svg10.dtd">
<svg version="1.0" xmlns="http://www.w3.org/2000/svg"
 width="1280.000000pt" height="1280.000000pt" viewBox="0 0 1280.000000 1280.000000"
 preserveAspectRatio="xMidYMid meet">
<metadata>
Created by potrace 1.16, written by Peter Selinger 2001-2019
</metadata>
<g transform="translate(0.000000,1280.000000) scale(0.100000,-0.100000)"
fill="#000000" stroke="none">
<path d="M8192 10895 c-172 -38 -311 -180 -343 -353 -15 -78 -5 -204 22 -277
21 -56 46 -84 383 -425 198 -201 948 -953 1666 -1672 l1305 -1308 -5275 0
c-2901 -1 -5360 -5 -5463 -10 -178 -8 -191 -10 -244 -37 -74 -37 -160 -123
-203 -203 l-35 -65 0 -145 0 -145 35 -65 c47 -89 130 -170 218 -214 l72 -36
5447 0 5448 0 -1321 -1322 c-1655 -1659 -1974 -1983 -2008 -2041 -37 -63 -56
-137 -56 -222 0 -182 88 -327 251 -415 l64 -35 145 0 c144 0 146 0 206 32 51
27 167 137 705 669 1038 1027 2049 2037 2815 2811 619 626 719 730 742 780 25
55 27 66 27 203 l0 145 -35 65 c-29 54 -134 165 -647 685 -640 650 -2668 2675
-3220 3217 -352 346 -379 367 -513 388 -82 12 -110 12 -188 -5z"/>
</g>
</svg>
