<?xml version="1.0" standalone="no"?>
<!DOCTYPE svg PUBLIC "-//W3C//DTD SVG 20010904//EN"
 "http://www.w3.org/TR/2001/REC-SVG-20010904/DTD/svg10.dtd">
<svg version="1.0" xmlns="http://www.w3.org/2000/svg"
 width="1280.000000pt" height="1280.000000pt" viewBox="0 0 1280.000000 1280.000000"
 preserveAspectRatio="xMidYMid meet">
<metadata>
Created by potrace 1.16, written by Peter Selinger 2001-2019
</metadata>
<g transform="translate(0.000000,1280.000000) scale(0.100000,-0.100000)"
fill="#000000" stroke="none">
<path d="M4355 10883 c-28 -10 -73 -31 -100 -47 -60 -34 -4148 -4117 -4189
-4183 -51 -83 -68 -157 -64 -274 3 -98 6 -111 42 -185 38 -79 45 -85 2105
-2145 2023 -2024 2068 -2067 2141 -2103 133 -64 288 -65 414 -2 113 56 179
129 226 251 33 85 33 234 0 320 -12 33 -32 74 -43 90 -11 17 -763 774 -1671
1683 l-1651 1652 5405 0 c5935 0 5477 -5 5600 61 77 41 153 122 193 206 31 65
32 73 32 194 0 124 0 126 -37 200 -49 100 -121 171 -218 218 l-75 36 -5450 3
-5450 2 1661 1663 c1562 1563 1662 1666 1688 1724 53 122 58 244 14 361 -42
114 -115 194 -227 250 -71 35 -81 37 -185 40 -86 2 -122 -2 -161 -15z"/>
</g>
</svg>
